<svg xmlns="http://www.w3.org/2000/svg" width="1740" height="360" viewBox="0 0 290 60">
  <!-- Lumora Studio: the Lumora mark (teal centre: editing, not on air) and the name. -->
  <g transform="translate(6 6)">
    <path d="M25.65 3.06 A21 21 0 0 1 42.95 33.04 L29.01 33.23 A10.5 10.5 0 0 0 30.82 16.02 Z" fill="#4fb3bf"/>
    <path d="M41.31 35.89 A21 21 0 0 1 6.69 35.89 L13.50 23.73 A10.5 10.5 0 0 0 27.50 33.90 Z" fill="#d6d8dc"/>
    <path d="M5.05 33.04 A21 21 0 0 1 22.35 3.06 L29.49 15.05 A10.5 10.5 0 0 0 13.68 22.09 Z" fill="#8f949c"/>
    <circle cx="24" cy="24" r="5.6" fill="#e0473b"/>
  </g>
  <text x="62" y="41" font-family="Segoe UI, Heebo, Arial, sans-serif" font-size="30" font-weight="700" letter-spacing="1" fill="#ffffff">Lumora<tspan font-weight="400" fill="#a8a8ac" dx="8">Studio</tspan></text>
</svg>
